<?xml version="1.0" encoding="utf-8"?>
<!-- Generator: Adobe Illustrator 22.0.1, SVG Export Plug-In . SVG Version: 6.00 Build 0)  -->
<svg version="1.1" id="Layer_1" xmlns="http://www.w3.org/2000/svg" xmlns:xlink="http://www.w3.org/1999/xlink" x="0px" y="0px"
	 viewBox="0 0 1440 177.7" style="enable-background:new 0 0 1440 177.7;" xml:space="preserve">
<style type="text/css">
	.st0{fill:#FFFFFF;}
</style>
<g>
	<path class="st0" d="M1440,147.8c0,93.3,0-63.3,0,30c-480,0-960,0-1440,0c0-122,0,6,0-116c11.1,2.3,22,4.9,33.2,6.7
		c25.2,4,50.5,8.1,75.8,11.3c18.8,2.4,37.7,4,56.5,5.3c26.5,1.9,53,4,79.6,4.6c31.3,0.6,62.6-0.1,93.9-0.6c13.8-0.2,27.6-0.9,41.3-2
		c25.6-2.1,51.4-3.8,76.9-7.2c30.9-4,61.8-8.8,92.5-14.5c45.7-8.6,90.6-20.8,134.9-35.2c56.5-18.3,114.7-27,173.9-28.9
		c27.1-0.9,54.2,0.3,81.3,1.7c22.2,1.1,44.4,3.4,66.4,6.2c42.9,5.5,85.2,13.9,127.1,24.4c47.6,11.9,94.4,26.3,140.5,43
		c55.2,20,109.1,43,161.6,69.4C1436.8,146.9,1438.5,147.3,1440,147.8z"/>
</g>
</svg>
