<?xml version="1.0" encoding="utf-8"?>
<!-- Generator: Adobe Illustrator 22.0.1, SVG Export Plug-In . SVG Version: 6.00 Build 0)  -->
<svg version="1.1" id="Layer_1" xmlns="http://www.w3.org/2000/svg" xmlns:xlink="http://www.w3.org/1999/xlink" x="0px" y="0px"
	 viewBox="0 0 1442 498.5" style="enable-background:new 0 0 1442 498.5;" xml:space="preserve">
<style type="text/css">
	.st0{fill:#019CC3;}
	.st1{fill:#F5C634;}
	.st2{fill:#6DB2F5;}
	.st3{fill:none;stroke:#FF6235;stroke-width:2;stroke-miterlimit:10;}
	.st4{fill:#9088FE;}
	.st5{fill:#75A4FB;}
	.st6{fill:#8593FE;}
	.st7{fill:#45B2C3;}
	.st8{fill:#7C9CFE;}
	.st9{fill:#3FB1C6;}
	.st10{fill:#41B1C5;}
	.st11{fill:#44B2C4;}
	.st12{fill:#3DB0C7;}
	.st13{fill:#43B1C4;}
	.st14{fill:#44B2C3;}
	.st15{fill:#4AB3C0;}
	.st16{fill:#49B2C0;}
	.st17{fill:#48B2C0;}
	.st18{fill:#4EB3BD;}
	.st19{fill:#4BB3BF;}
	.st20{fill:#4CB3BE;}
	.st21{fill:#51B4BB;}
	.st22{fill:#54B4BA;}
	.st23{fill:#57B4B7;}
	.st24{fill:#58B5B7;}
	.st25{fill:#57B5B8;}
	.st26{fill:#34AFCE;}
	.st27{fill:#63B7B0;}
	.st28{fill:#50B3BA;}
	.st29{fill:#6EB9AB;}
	.st30{fill:#45B1C1;}
	.st31{fill:#75BAA6;}
	.st32{fill:#5BB3AE;}
	.st33{fill:#80AEE3;}
	.st34{fill:#FF6235;}
	.st35{fill:#FFFFFF;}
	
		.st36{clip-path:url(#SVGID_2_);fill:none;stroke:#019CC3;stroke-width:2;stroke-linecap:round;stroke-linejoin:round;stroke-miterlimit:10;}
	
		.st37{clip-path:url(#SVGID_4_);fill:none;stroke:#019CC3;stroke-width:2;stroke-linecap:round;stroke-linejoin:round;stroke-miterlimit:10;}
	.st38{fill:none;stroke:#FBA76B;stroke-width:2;stroke-miterlimit:10;}
	.st39{fill:none;stroke:#FD7237;stroke-miterlimit:10;}
</style>
<g>
	<path class="st0" d="M0,0v488.5h1442v-401c0-4-54.4-13.3-58-13.9c-55.5-10.5-112.2-15.4-168.6-16.8
		c-118.8-2.9-237.6,11.1-353.7,35.7c-49.8,10.6-97.9,27.5-148,36.7c-199.2,36.4-402.5,0.1-588.8-74.2C82.6,38.1,41,19.7,0,0z"/>
	<path class="st1" d="M0,10v488.5h1442v-401c0-4-54.4-13.3-58-13.9c-55.5-10.5-112.2-15.4-168.6-16.8
		c-118.8-2.9-237.6,11.1-353.7,35.7c-49.8,10.6-97.9,27.5-148,36.7c-199.2,36.4-402.5,0.1-588.8-74.2C82.6,48.1,41,29.7,0,10z"/>
</g>
<path class="st2" d="M328.2,478.2c-5.3,6.5-8.4,6.7-13.8,0.2c-2.4-2.8-4.5-4.1-7.3-0.9c-1.2,1.4-2.6,2-4,0.4
	c-1.4-1.4-0.9-2.9-0.1-4.5c3.2-5.9,9.8-6.8,13.7-1.1c3,4.3,5.4,5.4,8.8,1.1C328.1,474.1,328.2,476.1,328.2,478.2z"/>
<path class="st2" d="M328.2,456c-5.3,6.5-8.4,6.7-13.8,0.2c-2.4-2.8-4.5-4.1-7.3-0.9c-1.2,1.4-2.6,2-4,0.4c-1.4-1.4-0.9-2.9-0.1-4.5
	c3.2-5.9,9.8-6.8,13.7-1.1c3,4.3,5.4,5.4,8.8,1.1C328.1,451.9,328.2,453.9,328.2,456z"/>
<path class="st3" d="M713.3,386.3c1.6,0.2,1.8,1.4,2,2.4c1.6,7.1,3.2,14.3,4.8,21.4c0.7,3.2-0.5,4.1-3.4,3.1c-6.3-2-12.7-4-19-6
	c-3-1-3.8-2.8-1.1-4.9c5.5-4.5,10.2-9.9,15.3-15C712.3,386.9,712.9,386.5,713.3,386.3z"/>
<path class="st4" d="M371.9,472.1c4.7-4.4,7.3-4.5,11.7,0.6c2.8,3.2,5.3,5.2,9,1.4c0.9-0.9,1.8-1,2.7-0.2c1.1,1,1.1,1.9,0.5,3.4
	c-2.2,5.9-8.3,7-12.9,2.1c-2.8-3-5.3-6.9-9.7-2.2C370.7,476.2,371.1,474.2,371.9,472.1z"/>
<path class="st4" d="M371.9,450c4.7-4.4,7.3-4.5,11.7,0.6c2.8,3.2,5.3,5.2,9,1.4c0.9-0.9,1.8-1,2.7-0.2c1.1,1,1.1,1.9,0.5,3.4
	c-2.2,5.9-8.3,7-12.9,2.1c-2.8-3-5.3-6.9-9.7-2.2C370.7,454,371.1,452.1,371.9,450z"/>
<path class="st5" d="M328.2,456c-1.5-1.2-2.1-2.9-2.6-4.7c0,0-0.1,0-0.1,0c1.2-1.1,2.2-2.3,3.3-3.5c4.5-2.8,8-0.9,10.7,2.9
	c1.4,2.1,2.8,3.6,5.2,3.9c1.8,1.3,2.1,3,1.2,5.1c-4,2.6-6.7-0.1-8.8-3C334.2,452.8,331.5,452.7,328.2,456z"/>
<path class="st5" d="M328.2,478.2c-1.5-1.2-2.1-2.9-2.6-4.7c0,0-0.1,0-0.1,0c1.2-1.1,2.2-2.3,3.3-3.5c4.5-2.8,8-0.9,10.7,2.9
	c1.4,2.1,2.8,3.6,5.2,3.9c1.8,1.3,2.1,3,1.2,5.1c-4,2.6-6.7-0.1-8.8-3C334.2,474.9,331.5,474.8,328.2,478.2z"/>
<path class="st6" d="M371.9,472.1c0.5,1.7,0.9,3.5,1.4,5.2c-5.8,7.4-9.4,7.3-14.8-0.2c-0.6-0.9-1.4-1.5-2.2-2.3
	c-1.5-1.9-1.6-3.8,0-5.7c2.6,0.3,4.6,2,5.8,4.2c2.8,5,5.4,3.8,8.2,0.1C370.7,472.9,371.3,472.5,371.9,472.1z"/>
<path class="st6" d="M371.9,450c0.5,1.7,0.9,3.5,1.4,5.2c-5.8,7.4-9.4,7.3-14.8-0.2c-0.6-0.9-1.4-1.5-2.2-2.3
	c-1.5-1.9-1.6-3.8,0-5.7c2.6,0.3,4.6,2,5.8,4.2c2.8,5,5.4,3.8,8.2,0.1C370.7,450.8,371.3,450.4,371.9,450z"/>
<path class="st7" d="M250.8,181.4c-2.4-0.5-4.3-1.8-4.5-4.6c-0.2-3.1,1.7-5,4.5-5c2.7,0,4.6,2,4.5,4.9
	C255.2,179.4,253.3,180.9,250.8,181.4z"/>
<path class="st8" d="M356.3,469.2c0,1.9,0,3.8,0,5.7c-2.6,0.1-4.2,2-5.8,3.8c-1.3,1.4-2.3,3.2-4.5,3.2c-0.4-1.7-0.8-3.4-1.2-5.1
	C348.5,474.1,350.3,468.2,356.3,469.2z"/>
<path class="st8" d="M356.3,447c0,1.9,0,3.8,0,5.7c-2.6,0.1-4.2,2-5.8,3.8c-1.3,1.4-2.3,3.2-4.5,3.2c-0.4-1.7-0.8-3.4-1.2-5.1
	C348.5,451.9,350.3,446.1,356.3,447z"/>
<path class="st9" d="M245.1,194.3c-0.3,3.1-1.9,4.7-4.4,4.6c-2.6-0.1-4.1-1.8-4.1-4.6c0-2.9,1.7-4.3,4.3-4.3
	C243.6,190.1,245,191.8,245.1,194.3z"/>
<path class="st10" d="M230.4,216.8c-2.4-0.5-4-1.8-4-4.4c0.1-2.8,1.8-4.4,4.5-4.2c2.4,0.2,3.7,1.9,3.6,4.5
	C234.3,215.4,232.7,216.5,230.4,216.8z"/>
<path class="st11" d="M236.9,177.9c-0.2,2.7-1.5,4.5-4.2,4.5c-2.5,0-4-1.7-4.1-4.1c-0.1-2.7,1.4-4.5,4.2-4.5
	C235.3,173.8,236.5,175.4,236.9,177.9z"/>
<path class="st12" d="M222.7,199.2c-2-0.1-3.6-1.4-3.7-3.9c0-2.3,1.4-3.7,3.6-3.9c2.5-0.2,4,1.4,4,3.9
	C226.6,197.6,225.4,199,222.7,199.2z"/>
<path class="st13" d="M224.1,230.7c-0.2,2.2-1.3,3.7-3.5,3.7c-2.5,0.1-3.9-1.5-3.8-4c0.1-2.4,1.6-3.6,3.8-3.6
	C222.8,226.9,224,228.2,224.1,230.7z"/>
<path class="st14" d="M214.1,173.8c2,0.3,3.4,1.4,3.5,3.4c0.2,2.4-1.4,3.9-3.5,3.9c-2.1,0-3.6-1.5-3.5-3.9
	C210.8,175.2,212.2,174.2,214.1,173.8z"/>
<path class="st15" d="M212,217c-2-0.2-3.3-1.2-3.5-3.4c-0.1-2.2,1.1-3.5,3.1-3.6c2.2-0.1,3.8,1.1,3.8,3.5
	C215.3,215.5,214,216.8,212,217z"/>
<path class="st16" d="M209.3,252.1c-2.1-0.2-3.3-1.4-3.4-3.5c-0.1-2.2,1.2-3.6,3.2-3.6c1.9,0,3.3,1.2,3.4,3.4
	C212.5,250.6,211.1,251.6,209.3,252.1z"/>
<path class="st17" d="M207.2,195.7c-0.4,1.9-1.3,3.3-3.4,3.4c-2.1,0-3.2-1.4-3.2-3.5c0-1.8,1.1-3.1,2.9-3.1
	C205.6,192.4,206.8,193.4,207.2,195.7z"/>
<path class="st18" d="M199,263.8c2,0.3,3.2,1.2,3.2,3.2c0,2-1,3.2-2.8,3.2c-2,0-3.4-1-3.3-3.3C196.2,265,197.6,264.2,199,263.8z"/>
<path class="st19" d="M200.1,234.3c-1.8-0.5-3.2-1.5-3.1-3.7c0.1-1.9,1.4-2.9,3.2-2.9c2.1,0,3.1,1.2,3,3.5
	C203.1,233.2,201.9,234,200.1,234.3z"/>
<path class="st20" d="M194.4,181.3c-1.8-0.3-2.8-1.3-2.8-3.3c0.1-2,1.1-3.1,2.9-3c1.8,0.1,2.9,1.4,2.8,3.2
	C197.3,180,196.1,181.1,194.4,181.3z"/>
<path class="st21" d="M188.8,290.7c-1.9-0.4-2.7-1.6-2.4-3.6c0.2-1.7,1.3-2.6,2.9-2.5c1.9,0.2,2.6,1.6,2.4,3.5
	C191.4,289.9,190.2,290.6,188.8,290.7z"/>
<path class="st18" d="M191.3,210.3c2,0,3.1,0.8,3.3,2.5c0.2,2.1-0.9,3.1-2.7,3.2c-1.6,0.1-2.8-0.8-2.9-2.5
	C188.8,211.7,189.9,210.6,191.3,210.3z"/>
<path class="st22" d="M188.3,250.8c-1.5-0.3-2.8-1-2.9-3c0-1.7,1.2-2.7,2.5-2.9c1.8-0.2,2.9,1.1,2.9,2.9
	C190.9,249.5,189.9,250.4,188.3,250.8z"/>
<path class="st23" d="M185.8,196.4c-0.1,1.7-0.8,2.8-2.5,2.8c-1.5,0-2.3-0.7-2.5-2.2c-0.2-1.7,0.6-2.9,2.2-3.2
	C184.6,193.5,185.4,194.8,185.8,196.4z"/>
<path class="st24" d="M180.9,267.4c-0.3,1.4-0.9,2.4-2.3,2.5c-1.7,0.1-2.6-0.8-2.7-2.6c0-1.5,0.9-2.4,2.2-2.5
	C179.7,264.7,180.6,265.8,180.9,267.4z"/>
<path class="st25" d="M177,224.8c1.7,0,2.7,0.9,2.8,2.6c0,1.4-0.9,2.4-2.2,2.6c-1.7,0.2-2.6-0.9-2.7-2.6
	C174.8,225.9,175.7,225.1,177,224.8z"/>
<path class="st26" d="M176.3,312c-1.8,0-2.5-0.8-2.4-2.4c0.1-1.3,0.8-1.9,2-1.9c1.5,0,2.1,0.9,2.1,2.4
	C177.9,311.5,177,311.9,176.3,312z"/>
<path class="st27" d="M168.3,285.9c1.4-0.1,2.2,0.6,2.4,1.7c0.3,1.5-0.4,2.5-1.8,2.6c-1.1,0.1-2-0.5-2.3-1.7
	C166.3,287,167.5,286.5,168.3,285.9z"/>
<path class="st28" d="M175,178.9c-0.1,1.4-0.6,2.5-2.1,2.4c-1.2-0.1-2-0.7-2.1-2c-0.2-1.6,0.8-2.3,2.2-2.4
	C174.2,176.9,174.8,177.6,175,178.9z"/>
<path class="st29" d="M163.7,202.6c1.6,0.2,2.2,1,2,2.3c-0.1,1.2-0.8,2.1-2.1,1.9c-0.9-0.1-1.4-0.9-1.5-2
	C162.1,203.5,162.8,202.8,163.7,202.6z"/>
<path class="st30" d="M164.9,250.1c-1,0.1-1.7-0.5-1.8-1.5c-0.1-1.1,0.5-1.7,1.5-1.9c1-0.1,1.7,0.4,1.8,1.5
	C166.5,249.3,165.9,249.9,164.9,250.1z"/>
<path class="st31" d="M153.8,304.4c1.6,0.2,2,0.8,2,1.5c-0.1,0.9-0.6,1.7-1.6,1.4c-0.5-0.2-1.1-0.9-1.2-1.4
	C152.9,304.9,153.6,304.3,153.8,304.4z"/>
<path class="st26" d="M160.8,333.8c-0.8-0.3-1.6-0.7-1.5-1.8c0.1-1,0.7-1.7,1.6-1.5c0.5,0.1,1.1,0.8,1.2,1.4
	C162.3,332.9,161.7,333.5,160.8,333.8z"/>
<path class="st26" d="M154.9,270.4c-0.3,0.8-0.5,1.6-1.4,1.3c-0.4-0.1-0.8-0.8-0.8-1.2c0-0.7,0.4-1.4,1.3-1.2
	C154.4,269.5,154.7,270.1,154.9,270.4z"/>
<path class="st32" d="M155.3,226.9c-0.2,0.8-0.8,1.1-1.5,1.1c-0.8,0-1.2-0.6-1-1.4c0.1-0.3,0.7-0.7,1-0.7
	C154.5,225.8,155.2,226,155.3,226.9z"/>
<path class="st33" d="M328.9,447.8c-0.4,1.9-1.5,3.1-3.3,3.5C326.3,449.7,327.5,448.7,328.9,447.8z"/>
<path class="st33" d="M328.9,470c-0.4,1.9-1.5,3.1-3.3,3.5C326.3,471.9,327.5,470.8,328.9,470z"/>
<polygon class="st34" points="1235.5,236.9 1222.7,249.7 1235.5,262.5 1222.7,275.2 1235.5,288 1222.7,300.8 1235.5,313.5 
	1221.4,327.7 1218.7,325 1230.1,313.5 1217.3,300.8 1230.1,288 1217.3,275.2 1230.1,262.5 1217.3,249.7 1230.1,236.9 1218.7,225.5 
	1221.4,222.8 "/>
<polygon class="st35" points="1257.4,236.9 1244.7,249.7 1257.4,262.5 1244.7,275.2 1257.4,288 1244.7,300.8 1257.4,313.5 
	1243.3,327.7 1240.6,325 1252.1,313.5 1239.3,300.8 1252.1,288 1239.3,275.2 1252.1,262.5 1239.3,249.7 1252.1,236.9 1240.6,225.5 
	1243.3,222.8 "/>
<g>
	<defs>
		
			<rect id="SVGID_1_" x="1199.4" y="107.5" transform="matrix(0.7814 -0.6241 0.6241 0.7814 190.9453 782.5377)" width="25.8" height="22.6"/>
	</defs>
	<clipPath id="SVGID_2_">
		<use xlink:href="#SVGID_1_"  style="overflow:visible;"/>
	</clipPath>
	<polygon class="st36" points="1205.9,110.7 1217,115 1228,119.4 1218.8,126.8 1209.5,134.2 1207.7,122.5 	"/>
</g>
<g>
	<defs>
		
			<rect id="SVGID_3_" x="387.1" y="318.9" transform="matrix(0.4479 -0.8941 0.8941 0.4479 -76.6631 539.3248)" width="22.6" height="25.8"/>
	</defs>
	<clipPath id="SVGID_4_">
		<use xlink:href="#SVGID_3_"  style="overflow:visible;"/>
	</clipPath>
	<polygon class="st37" points="403,322.5 403.7,334.4 404.4,346.3 393.8,341 383.1,335.6 393.1,329.1 	"/>
</g>
<circle class="st38" cx="327.1" cy="230.1" r="4.3"/>
<circle class="st39" cx="1300.3" cy="377.1" r="3"/>
</svg>
