<svg xmlns="http://www.w3.org/2000/svg" xmlns:xlink="http://www.w3.org/1999/xlink" version="1.1" x="0px" y="0px" viewBox="0 0 90 112.5" enable-background="new 0 0 90 90" xml:space="preserve"><g><g><g><path d="M44.6,28.9c-2.7-1-4.8-2.5-6.8-4.5c-0.3,1.2-0.6,2.3-0.9,3.5c2.7-0.6,7.7,1.3,9.9-0.8c1.9-1.9,0.7-6.9,0.7-9.2     c-1,0.6-2.1,1.2-3.1,1.8c2.2,1.7,4,3.8,5.7,6c0.7,0.8,2.3,0.8,2.9,0c1.9-2.3,3.9-4.1,6.5-5.6c-1-0.6-2.1-1.2-3.1-1.8     c0.4,3.6-2.7,8.9-4,12.2c-0.9,2.5,3.1,3.6,4,1.1c1.4-3.9,4.7-9.1,4.1-13.3c-0.2-1.5-1.6-2.7-3.1-1.8c-2.8,1.7-5.2,3.7-7.3,6.3     c1,0,2,0,2.9,0c-2-2.5-4.1-4.7-6.6-6.6c-1.3-1-3.2,0.4-3.1,1.8c0,2.2,0.6,5.1,0,7.2c0.5-0.5,1-1,1.5-1.5c-2.7,0.9-6.1-0.4-9,0.3     c-1.5,0.4-2,2.4-0.9,3.5c2.5,2.5,5.3,4.3,8.6,5.6C46,33.9,47,29.8,44.6,28.9L44.6,28.9z"/></g></g></g><g><g><g><path d="M53.8,32.6c2.7,0,2.7-4.2,0-4.2S51.1,32.6,53.8,32.6L53.8,32.6z"/></g></g></g><g><g><g><path d="M42.7,35.4C33.5,39.6,25.6,48,25.1,58.5c-0.5,11.6,11.5,15.3,20.8,15c10.4-0.4,22.8-5.9,26-16.5     c3.2-10.6-9.8-19.8-17.3-24.5c-2.3-1.4-4.4,2.2-2.1,3.6c6,3.8,13.3,8.9,15.4,16.1C71,62.3,55.9,67.7,48.7,69     c-9.2,1.7-20.9-1.5-19.2-13.1c1.2-7.8,8.6-13.9,15.3-17C47.2,37.8,45.1,34.2,42.7,35.4L42.7,35.4z"/></g></g></g><g><g><g><path d="M51.7,44.6c-4.6-1.7-11.2,1.6-9.9,7.1c0.6,2.6,3.9,2.6,5.9,2.9c2.2,0.3,3.5,0,1.5,2c-1.2,1.3-3.3,1.6-4.2-0.1     c-1.2-2.4-4.8-0.3-3.6,2.1c3,6,10.4,2.6,12.9-1.9c1.6-2.8-1-5.3-3.6-5.9c-1.6-0.4-3.3-0.4-4.9-0.6c-0.6-0.1,1.6-1.7,1.7-1.8     c1-0.4,2-0.2,3,0.1C53.1,49.5,54.2,45.5,51.7,44.6L51.7,44.6z"/></g></g></g><g><g><g><path d="M49.2,45.1c0.1-1,0-2.1-0.2-3.1c-0.3-1.1-1.5-1.7-2.6-1.5c-1.1,0.3-1.7,1.5-1.5,2.6c0,0.2,0.1,0.4,0.1,0.5     c-0.1-0.5,0,0.1,0,0.2c0,0.4,0,0.8,0,1.3c-0.1,1.1,1,2.1,2.1,2.1C48.3,47.1,49,46.2,49.2,45.1L49.2,45.1z"/></g></g></g><g><g><g><path d="M46.9,60.2c0.1,0.4,0.2,0.8,0.3,1.2c0,0.2,0.1,0.4,0.1,0.6c-0.1-0.4,0,0.4,0,0.5c0.1,1.1,0.9,2.1,2.1,2.1     c1.1,0,2.2-0.9,2.1-2.1c-0.1-1.2-0.3-2.3-0.6-3.4c-0.3-1.1-1.5-1.8-2.6-1.5C47.3,57.9,46.6,59.1,46.9,60.2L46.9,60.2z"/></g></g></g><g><g><g><path d="M67.9,34.1c-0.9-1.9-1.9-3.9-2.8-5.8c-0.9,0.9-1.9,1.9-2.8,2.8c1.8,0.9,3.7,1.8,5.6,2.6c0.6,0.2,1.6,0,2-0.5     c1.1-1.4,2.3-2.7,3.8-3.8c-1.2-0.3-2.3-0.6-3.5-0.9c0.3,1.6,0.7,3.1,1,4.7c0.3,1.6,2.4,2,3.5,0.9c1.1-1.1,2.1-1.6,3.6-1.9     c-0.9-0.5-1.7-1-2.6-1.5c0.5,1.8,0,3.1-1.4,4.3c-2.1,1.7,0.9,4.6,2.9,2.9c2.5-2.1,3.3-5.2,2.5-8.3c-0.3-1.1-1.4-1.7-2.6-1.5     c-2.1,0.4-3.9,1.4-5.4,3c1.2,0.3,2.3,0.6,3.5,0.9c-0.3-1.6-0.7-3.1-1-4.7c-0.4-1.7-2.4-1.8-3.5-0.9c-1.4,1.1-2.6,2.4-3.8,3.8     c0.7-0.2,1.3-0.4,2-0.5c-1.6-0.6-3.1-1.4-4.6-2.1c-1.9-1-3.8,1-2.8,2.8c0.9,1.9,1.9,3.9,2.8,5.8C65.5,38.6,69.1,36.5,67.9,34.1     L67.9,34.1z"/></g></g></g><g><g><g><path d="M74.1,42.2c5.2,3.6,11.6,8.2,10,15.5C82.6,65,71.5,66,65.9,64.4c-2.6-0.7-3.7,3.3-1.1,4c8.4,2.3,18.1-0.1,22.7-7.9     c5.3-9.1-4.7-17.5-11.2-22C74,37,72,40.7,74.1,42.2L74.1,42.2z"/></g></g></g><g><g><g><path d="M66.2,36.7c-1.7,0.1-3.4,0.8-4.6,2.1c-0.8,0.8-0.8,2.1,0,2.9c0.8,0.8,2.2,0.8,2.9,0c0.1-0.1,0.3-0.3,0.4-0.4     c-0.3,0.2,0.3-0.2,0.4-0.2c0.2-0.1,0.2-0.1,0,0c0.1,0,0.2-0.1,0.4-0.1c0.1,0,0.3-0.1,0.4-0.1c-0.2,0-0.2,0,0,0     c1.1-0.1,2.1-0.9,2.1-2.1C68.3,37.7,67.4,36.6,66.2,36.7L66.2,36.7z"/></g></g></g><g><g><g><path d="M29.4,67.5c-7.3,3.6-27.2,4.1-23.6-9.3c1.1-4,5.1-7.5,8.1-10.2c4-3.7,10.4-6.1,14.7-1.5c1.8,2,4.8-1,2.9-2.9     c-10.4-11.2-27.2,4.3-30.1,15c-1.8,6.5,3.5,11.7,8.9,14c6.8,2.9,14.8,1.6,21.2-1.6C33.9,69.9,31.8,66.3,29.4,67.5L29.4,67.5z"/></g></g></g><g><g><g><path d="M18.3,35.2c-2.8-2.3-5.3-4.8-7.5-7.8c-0.6,1-1.2,2.1-1.8,3.1c2.1,0.2,3.9,0.7,5.9,1.4c0.9,0.4,1.8-0.3,2.3-1     c2.1-2.8,2.8-6.4,3.8-9.7c-1.3,0-2.7,0-4,0c1.3,3.3,2.8,6.4,4.6,9.4c0.7,1.1,2.3,1.4,3.3,0.4c1.8-1.8,3.7-3.3,5.8-4.8     c-1-0.8-2-1.6-3.1-2.3c-0.6,4.2-1.6,8.2-3,12.1c-0.9,2.5,3.1,3.6,4,1.1c1.5-4,2.5-8,3-12.1c0.2-1.6-1.4-3.5-3.1-2.3     c-2.4,1.6-4.5,3.4-6.6,5.4c1.1,0.1,2.2,0.3,3.3,0.4c-1.7-2.7-3.1-5.4-4.2-8.4c-0.7-1.9-3.3-2.1-4,0c-0.9,2.9-1.6,6.2-3.4,8.7     c0.8-0.3,1.6-0.6,2.3-1c-2.3-0.9-4.5-1.4-7-1.6c-1.5-0.1-2.7,1.9-1.8,3.1c2.4,3.2,5,6.1,8.1,8.6C17.5,39.8,20.4,36.9,18.3,35.2     L18.3,35.2z"/></g></g></g><g><g><g><path d="M17.8,40.4c2-1,4.1-1.6,6.3-1.9c-0.9-1.2-1.9-2.4-2.8-3.7c-1.2,1.7-2.8,3-4.5,4.3c-1.9,1.5,0.2,5.1,2.4,4.2     c1.9-0.8,3.8-1.6,5.7-2.3c-0.8-1.4-1.6-2.8-2.4-4.2c-1,1.1-2.1,2.2-3.1,3.3c-1.4,1.5-0.5,4.4,1.8,4.3c1.2-0.1,2.4-0.2,3.5-0.6     c3-1,1.7-5.8-1.3-4.8c-0.7,0.2-1.4,0.4-2.2,0.4c0.6,1.4,1.2,2.8,1.8,4.3c1-1.1,2.1-2.2,3.1-3.3c1.6-1.7,0-5.2-2.4-4.2     c-1.9,0.8-3.8,1.6-5.7,2.3c0.8,1.4,1.6,2.8,2.4,4.2c2-1.6,3.8-3.2,5.3-5.3c1.4-2-0.9-4-2.8-3.7c-2.6,0.4-5.1,1.2-7.5,2.4     C12.4,37.6,14.9,41.9,17.8,40.4L17.8,40.4z"/></g></g></g><g><g><g><path d="M44.1,35.2c0.5-0.7,1.8-0.7,2.6-0.9c0.8-0.2,2.3-0.8,3.1-0.6c-0.6-0.6-1.2-1.2-1.7-1.7c0,0.1,0.1,0.2,0.1,0.2     c0.1-0.6,0.2-1.3,0.3-1.9c-0.2,0.4-2.1,1.2-2.6,1.6c-1,0.7-2,1.3-3.1,2c-2.3,1.5-0.9,5.5,1.9,4.6c2.5-0.8,5-1.7,7.5-2.5     c3-1,1.7-5.9-1.3-4.8c-2.5,0.8-5,1.7-7.5,2.5c0.6,1.5,1.3,3,1.9,4.6c1.8-1.2,3.7-2.4,5.5-3.5c1.3-0.9,2.8-2.2,2.1-3.9     c-0.3-0.8-0.8-1.6-1.7-1.7c-1.9-0.3-3.9,0.2-5.8,0.6c-1.7,0.4-3.7,0.8-4.8,2.2C38.6,34.2,42.1,37.7,44.1,35.2L44.1,35.2z"/></g></g></g><g><g><g><path d="M60.8,56.3c0.7,1.2-0.7,2.4-1.5,3.2c-1.1,1.1,0.6,2.9,1.8,1.8c1.7-1.6,3.2-3.8,1.9-6.2C62.2,53.6,60,54.9,60.8,56.3     L60.8,56.3z"/></g></g></g><g><g><g><path d="M66.4,39.6c2.5,0.5,5,0.9,7.4,1.5c3.1,0.7,4.5-4.2,1.3-4.8c-2.5-0.5-5-1-7.4-1.5C64.6,34.2,63.3,39,66.4,39.6L66.4,39.6z     "/></g></g></g><text x="0" y="105" fill="#000000" font-size="5px" font-weight="bold" font-family="'Helvetica Neue', Helvetica, Arial-Unicode, Arial, Sans-serif">Created by Putra Theoo</text><text x="0" y="110" fill="#000000" font-size="5px" font-weight="bold" font-family="'Helvetica Neue', Helvetica, Arial-Unicode, Arial, Sans-serif">from the Noun Project</text></svg>