<svg xmlns="http://www.w3.org/2000/svg" data-name="Layer 1" viewBox="0 0 100 125" x="0px" y="0px"><title>Artboard 16</title><path d="M9.52,55.12a4.69,4.69,0,0,1-2.81-1.39,6,6,0,0,1-1.4-2.37,3.25,3.25,0,0,0-1.48-.19c-.7,0-1.24.13-1.26.29A7,7,0,0,0,3.47,56a8.22,8.22,0,0,0,5,3.84c.24.07.48.11.73.16A28.69,28.69,0,0,0,11,66.61,37.24,37.24,0,0,0,26.4,84.5a27.31,27.31,0,0,0,7.47,3.15,6.46,6.46,0,0,0,.07,1.07c0,.19.67.32,1.42.3a2.42,2.42,0,0,0,1.25-.21,6.56,6.56,0,0,1,1.51-2.69,5.29,5.29,0,0,1,3.17-1.63,4.71,4.71,0,0,1,3.62,1,4.48,4.48,0,0,1,0,6.94,4.7,4.7,0,0,1-3.61,1,5.26,5.26,0,0,1-3.15-1.62,6.51,6.51,0,0,1-1.5-2.67A3,3,0,0,0,35.16,89c-.7,0-1.24.14-1.26.31a7.59,7.59,0,0,0,1,4.83,8.79,8.79,0,0,0,5.37,4.07,9.27,9.27,0,0,0,4,.17,9.48,9.48,0,0,0,7.48-6.92h0c.68.06,1.4,0,2.16.07l2.38,0c.82,0,1.67-.14,2.56-.22a40.73,40.73,0,0,0,11.55-2.91l3-1.37c1-.52,2-1.13,3-1.7a27.46,27.46,0,0,0,2.93-2l1.45-1.06c.48-.37.91-.79,1.37-1.19a42.49,42.49,0,0,0,9.45-11.45,45.53,45.53,0,0,0,5.12-13.95l.5-3.58c.14-1.18.11-2.37.17-3.53,0-.19,0-.37,0-.55a9.22,9.22,0,0,0,0-2.25c0-.14-.05-.27-.07-.4-.07-1.21-.19-2.39-.34-3.54a42.06,42.06,0,0,0-3.3-11.46,38,38,0,0,0-3.47-6.08A9.52,9.52,0,0,0,90,9.14a9.44,9.44,0,0,0-3.89-1.66,9.27,9.27,0,0,0-4,.18,8.85,8.85,0,0,0-4.64,3,36.93,36.93,0,0,0-6.09-4.15A41.13,41.13,0,0,0,60.48,2.48a43.92,43.92,0,0,0-6.57-.93l-.84,0A9,9,0,0,0,52,1.45l-.44,0c-.35,0-.7,0-1,0-1.17,0-2.34.1-3.53.19A43.12,43.12,0,0,0,39.81,3a41.84,41.84,0,0,0-6.93,2.5,43.76,43.76,0,0,0-20.29,19A41.08,41.08,0,0,0,8.54,35.39a36.2,36.2,0,0,0-.84,7.39,8.16,8.16,0,0,0-4.22,3.58,7,7,0,0,0-.88,4.52c0,.17.67.3,1.43.28A2.65,2.65,0,0,0,5.27,51a6,6,0,0,1,1.41-2.38,4.72,4.72,0,0,1,2.82-1.4,4.15,4.15,0,0,1,3.16.94,3.92,3.92,0,0,1,0,6A4.14,4.14,0,0,1,9.52,55.12ZM55.61,85.91a11,11,0,0,1-3,2.46l-.55.05a9.56,9.56,0,0,0-3.9-7.1,9.44,9.44,0,0,0-3.89-1.66,9.26,9.26,0,0,0-1.45-.12c-.45-2-1.18-4.92-1.87-8.34-.36-1.8-.7-3.74-1-5.76a71.27,71.27,0,0,0,9.34.29c1,0,1.93-.1,2.83-.17s1.76-.21,2.56-.32c1.4-.2,2.61-.41,3.63-.64a9.11,9.11,0,0,0,.5,1A10,10,0,0,0,64,69.87c-1.32,2.61-2.83,6.66-4.72,10.35A28.69,28.69,0,0,1,55.61,85.91Zm2-26.5c0,.21.67.37,1.42.35s1.21-.12,1.25-.25A7.75,7.75,0,0,1,62,56.18a6.49,6.49,0,0,1,3.89-2.11,5.91,5.91,0,0,1,4.6,1.26,5.68,5.68,0,0,1,0,8.86,5.9,5.9,0,0,1-4.59,1.26A6.51,6.51,0,0,1,62,63.33,7.65,7.65,0,0,1,60.28,60c0-.14-.71-.26-1.48-.26s-1.24.16-1.26.36a8,8,0,0,0,0,1.55c-.88-.13-1.88-.24-3-.33-.78-.06-1.6-.12-2.47-.17l-2.72-.23c-3.16-.26-6.67-.62-10.22-1.09l0-.32c-.5-4.09-.8-8.22-1.06-11.85-.12-2.73-.25-5.18-.48-7.13a9.61,9.61,0,0,0,1.35-.13,9.86,9.86,0,0,0,8-8.15c1.76.13,3.82.21,6.15.36,2.8.2,6,.48,9.32.92l2.73.4c0,.24.08.49.12.72.86,5.66,1.23,10.7,1.54,14.41a10.44,10.44,0,0,0-1.88.3,10,10,0,0,0-6.08,4.56A8.73,8.73,0,0,0,57.57,59.41ZM86.84,67a40.12,40.12,0,0,1-8.21,10.2c-.4.36-.77.75-1.18,1.09l-1.26,1a24.63,24.63,0,0,1-2.53,1.85c-.88.55-1.72,1.12-2.59,1.64l-2.64,1.36a41.68,41.68,0,0,1-6.77,2.58,24.11,24.11,0,0,0,2.5-3.94,30,30,0,0,0,3.25-12.26,10.22,10.22,0,0,0,6.29-2,10.73,10.73,0,0,0,4.22-6.84A42.18,42.18,0,0,0,84.15,60a33.74,33.74,0,0,0,4.43-1.85A24,24,0,0,0,91,56.75,43.45,43.45,0,0,1,86.84,67Zm5.43-20.44a4.46,4.46,0,0,1-.1,1.67A7.87,7.87,0,0,1,90,51.55a20,20,0,0,1-3.55,2.72,38.29,38.29,0,0,1-3.76,2.06c-1.68.81-3.25,1.47-4.66,2a10.65,10.65,0,0,0-8.2-9A76.9,76.9,0,0,0,70,34.84c1,.19,1.92.4,2.88.63A60.57,60.57,0,0,1,83.57,39a28.63,28.63,0,0,1,4.72,2.61,11.71,11.71,0,0,1,3.31,3.28A5.18,5.18,0,0,1,92.27,46.53ZM76.13,13.28a7.26,7.26,0,0,0-.3,3.26c0,.19.67.32,1.42.3a2.42,2.42,0,0,0,1.25-.21A6.56,6.56,0,0,1,80,14a5.29,5.29,0,0,1,3.17-1.63,4.71,4.71,0,0,1,3.62,1,4.48,4.48,0,0,1,0,6.94,4.7,4.7,0,0,1-3.61,1A5.26,5.26,0,0,1,80,19.73a6.51,6.51,0,0,1-1.5-2.67A3,3,0,0,0,77,16.85c-.7,0-1.24.14-1.26.31a7.59,7.59,0,0,0,1,4.83,8.79,8.79,0,0,0,5.37,4.07,8.89,8.89,0,0,0,5.4-.22,51.78,51.78,0,0,1,2.5,6.06,47,47,0,0,1,1.41,5.22h0a31.74,31.74,0,0,0-5.64-3.18A57.1,57.1,0,0,0,74,30.28c-1.55-.32-3.09-.57-4.6-.79-.28-2-.65-4.13-1.14-6.26A52.67,52.67,0,0,0,64.45,11.9a30.65,30.65,0,0,0-2.52-4.27A48.25,48.25,0,0,1,76.13,13.28Zm-29-3.91A8.87,8.87,0,0,1,50.31,7,4.43,4.43,0,0,1,52,6.66a4.59,4.59,0,0,1,1.63.42,9.62,9.62,0,0,1,3.26,2.83,25.06,25.06,0,0,1,2.67,4.4,55.23,55.23,0,0,1,3.62,10.19c.39,1.48.72,2.95,1,4.4l-1.35-.11A86.88,86.88,0,0,0,53,28.74c-2.32.14-4.38.39-6.13.62a9.79,9.79,0,0,0-6.49-8c.58-1.44,1.27-3.06,2.1-4.8A30.14,30.14,0,0,1,47.09,9.37Zm-34.84,28-.24.2a44.46,44.46,0,0,1,4.77-10.72,43.88,43.88,0,0,1,7.7-9.3,42.49,42.49,0,0,1,10.7-7.07A40.33,40.33,0,0,1,42.24,8a31,31,0,0,0-3.33,7.13,42.16,42.16,0,0,0-1.46,5.7,9.63,9.63,0,0,0-2.69.3,9.14,9.14,0,0,0-5.58,4.22,7.93,7.93,0,0,0-1.05,5c0,.19.67.33,1.42.32s1.21-.11,1.25-.22a6.94,6.94,0,0,1,1.58-2.89,5.67,5.67,0,0,1,3.4-1.78,5.09,5.09,0,0,1,3.93,1.11,4.86,4.86,0,0,1,0,7.55,5.08,5.08,0,0,1-3.92,1.11,5.64,5.64,0,0,1-3.38-1.78,6.89,6.89,0,0,1-1.57-2.87,2.79,2.79,0,0,0-1.48-.23h0c-.7,0-1.24.15-1.26.33a6.73,6.73,0,0,0-.06.74A27.94,27.94,0,0,0,15.81,35,21.92,21.92,0,0,0,12.24,37.35Zm1.53,5.43c.49-.39,1-.77,1.61-1.14a33.8,33.8,0,0,1,3-1.74c3.7-2,7.82-3.52,10.3-4.87a8.5,8.5,0,0,0,.49,1,9.14,9.14,0,0,0,5.05,4,66.32,66.32,0,0,0-1,7.63,73.28,73.28,0,0,0,.3,11.3c-3-.52-5.86-1.13-8.44-1.76s-4.73-1.32-6.52-1.91A9,9,0,0,0,15.88,43.9,8.9,8.9,0,0,0,13.77,42.78Zm2.12,15.64c.16-.11.31-.25.47-.38a32.26,32.26,0,0,0,7.24,3.79,59,59,0,0,0,10.71,2.87,58.58,58.58,0,0,0,2,7.74A33.84,33.84,0,0,0,39.79,80a8.75,8.75,0,0,0-4.88,3.92c-.12.21-.23.42-.33.63-1.49-1.07-3.42-2.38-5.48-4a56.38,56.38,0,0,1-7.67-7.3,56.72,56.72,0,0,1-6.08-8.68c-1-1.7-1.79-3.32-2.48-4.71A8.62,8.62,0,0,0,15.89,58.43Z"/><text x="0" y="115" fill="#000000" font-size="5px" font-weight="bold" font-family="'Helvetica Neue', Helvetica, Arial-Unicode, Arial, Sans-serif">Created by Gregor Cresnar</text><text x="0" y="120" fill="#000000" font-size="5px" font-weight="bold" font-family="'Helvetica Neue', Helvetica, Arial-Unicode, Arial, Sans-serif">from the Noun Project</text></svg>