<svg xmlns:dc="http://purl.org/dc/elements/1.1/" xmlns:cc="http://creativecommons.org/ns#" xmlns:rdf="http://www.w3.org/1999/02/22-rdf-syntax-ns#" xmlns:svg="http://www.w3.org/2000/svg" xmlns="http://www.w3.org/2000/svg" xmlns:sodipodi="http://sodipodi.sourceforge.net/DTD/sodipodi-0.dtd" xmlns:inkscape="http://www.inkscape.org/namespaces/inkscape" version="1.1" x="0px" y="0px" viewBox="0 0 100 125"><g transform="translate(0,-952.36218)"><path style="text-indent:0;text-transform:none;direction:ltr;block-progression:tb;baseline-shift:baseline;color:#000000;enable-background:accumulate;" d="m 18,956.36218 c -1.859,1.4e-4 -2.9616,1.58663 -3,3 l 0,86.00002 c 2e-4,1.5707 1.4292,2.9998 3,3 l 50,0 c 0.7905,-0.01 1.5733,-0.3401 2.125,-0.9063 l 14,-14 c 0.5476,-0.5494 0.8688,-1.318 0.875,-2.0937 l 0,-72.00002 c -2e-4,-1.57075 -1.4292,-2.99984 -3,-3 l -64,0 z m 3,5.99999 58,0 0,66.00003 -11,0 c -1.6831,0 -3.0218,1.5325 -3,3 l 0,11 -44,0 0,-80.00003 z m 29,2 c -4.3827,0 -8,3.6172 -8,8 0,4.3828 3.6173,8 8,8 4.3827,0 8,-3.6172 8,-8 0,-4.3828 -3.6173,-8 -8,-8 z m 0,16 c -3.1,-10e-5 -6.7525,0.8216 -9.9688,2.8125 -3.2158,1.9909 -6.0312,5.5446 -6.0312,10.1875 a 3.0003,3.0003 0 0 0 3,3 l 26,0 a 3.0003,3.0003 0 0 0 3,-3 c 0,-4.6429 -2.8154,-8.1966 -6.0312,-10.1875 -3.2163,-1.9909 -6.8688,-2.8126 -9.9688,-2.8125 z m 0,-10 c 1.1401,0 2,0.85991 2,2 0,1.1401 -0.8599,2 -2,2 -1.1401,0 -2,-0.8599 -2,-2 0,-1.14009 0.8599,-2 2,-2 z m 0,16 c 1.9,0 4.7475,0.64721 6.7812,1.90631 1.003,0.62089 1.7977,1.2922 2.3438,2.09369 l -18.25,0 c 0.5461,-0.8015 1.3406,-1.4728 2.3438,-2.09369 2.0337,-1.2591 4.8812,-1.90631 6.7812,-1.90631 z m -20,14.00003 c -1.6568,0 -3,1.3431 -3,3 0,1.6568 1.3432,3 3,3 l 40,0 c 1.6569,0 3,-1.3432 3,-3 0,-1.6569 -1.3431,-3 -3,-3 l -40,0 z m 0,10 c -1.6568,0 -3,1.3431 -3,3 0,1.6568 1.3432,3 3,3 l 40,0 c 1.6569,0 3,-1.3432 3,-3 0,-1.6569 -1.3431,-3 -3,-3 l -40,0 z m 0,10 c -1.6568,0 -3,1.3431 -3,3 0,1.6568 1.3432,3 3,3 l 40,0 c 1.6569,0 3,-1.3432 3,-3 0,-1.6569 -1.3431,-3 -3,-3 l -40,0 z m 41,14 3.75,0 -3.75,3.75 0,-3.75 z" fill="#000000" fill-opacity="1" stroke="none" marker="none" visibility="visible" display="inline" overflow="visible"/></g><text x="0" y="115" fill="#000000" font-size="5px" font-weight="bold" font-family="'Helvetica Neue', Helvetica, Arial-Unicode, Arial, Sans-serif">Created by unlimicon</text><text x="0" y="120" fill="#000000" font-size="5px" font-weight="bold" font-family="'Helvetica Neue', Helvetica, Arial-Unicode, Arial, Sans-serif">from the Noun Project</text></svg>