<?xml version="1.0" encoding="utf-8"?>
<!-- Generator: Adobe Illustrator 22.0.1, SVG Export Plug-In . SVG Version: 6.00 Build 0)  -->
<svg version="1.1" id="Layer_1" xmlns="http://www.w3.org/2000/svg" xmlns:xlink="http://www.w3.org/1999/xlink" x="0px" y="0px"
	 viewBox="0 0 1792.1 1087.8" style="enable-background:new 0 0 1792.1 1087.8;" xml:space="preserve">
<g>
	<path d="M0,1013.8C0,628.9,0,385,0,0c597.2,0,1194.4,0,1792.1,0c0,351.7,0,562.5,0,914.3c-15.2,7-30.3,14.2-45.5,21
		c-101.3,45.3-205.7,81.7-313.3,108.7c-91.6,23-184.4,38.3-278.8,42.7c-55.3,2.6-110.6,1.1-165.7-5.6
		c-45.1-5.5-89.6-13.6-132.9-27.2c-125-39.3-253.1-62.1-383.8-69.6c-51.1-2.9-102.4-3.5-153.5-3c-44.5,0.5-89.1,3.2-133.5,6.7
		c-35.9,2.8-71.7,7.4-107.3,12.3C51.6,1003.8,25.9,1009.2,0,1013.8z"/>
</g>
</svg>
