<?xml version="1.0" encoding="utf-8"?>
<!-- Generator: Adobe Illustrator 22.0.1, SVG Export Plug-In . SVG Version: 6.00 Build 0)  -->
<svg version="1.1" id="Layer_1" xmlns="http://www.w3.org/2000/svg" xmlns:xlink="http://www.w3.org/1999/xlink" x="0px" y="0px"
	 viewBox="0 0 720.7 738.6" style="enable-background:new 0 0 720.7 738.6;" xml:space="preserve">
<style type="text/css">
	.st0{fill:#019BC2;}
	.st1{fill:#FEFEFE;}
</style>
<g>
	<g>
		<path class="st0" d="M720.6,57.4c0,212.2,0,424.4,0,636.6c-2.8,2.9-6.1,1.6-9.2,1c-26.7-5.3-53.7-8.9-80.9-10.7
			c-30.8-2-61.7-2.3-92.7-0.5c-31.2,1.8-62,5.7-92.5,12c-20.3,4.2-40.3,9.4-59.9,16c-26,8.7-52.6,13.6-79.9,15.6
			c-44.8,3.3-88.7-1.9-132.2-11.4c-48.9-10.7-95.9-27.3-141.3-48.3c-8.3-3.8-16.5-7.8-24.8-11.8c-4.5-2.2-6.5-5.5-6.2-10.4
			c0.1-1.3,0-2.6,0-3.9c0-206.5,0-413.1,0-619.6c0-1.3,0-2.6,0-3.9c0.2-5.2,2-6.5,7.1-4.7c2.9,1,5.5,2.6,8.3,3.9
			c57.4,28.1,117.2,49.2,180.2,61c35.7,6.7,71.8,8.7,108,7c26.6-1.3,52.7-6.8,78-15.2c41.8-13.8,84.5-22.6,128.3-26.5
			c24.9-2.2,49.9-4.4,74.9-3.6c42,1.3,83.9,4.1,125.2,12.6C714.6,53.3,718.1,54.2,720.6,57.4z"/>
		<path class="st1" d="M720.6,57.4c-13.7-2.2-27.4-4.6-41.1-6.7c-36.6-5.6-73.6-7.9-110.6-7.3c-54.1,0.8-107.4,7.4-159.7,21.9
			C388.4,71,368.1,78.9,346.7,83c-33.4,6.5-67,7.6-100.7,4.8c-85.6-7-165.2-34.2-241.4-72.7c-0.7-0.4-1.5-0.6-2.3-0.9
			c-1.4,2.3-0.8,4.5-0.8,6.6c0,207.4,0,414.7-0.2,622.1c0,4.8,1.4,7.2,5.7,9.4c61.8,31.5,126.6,54.4,195.1,66.3
			c36.3,6.3,73,8.8,109.9,5.4c27.1-2.5,53.4-8.8,79.3-17.3c36.6-12,74.3-19.1,112.6-23.3c42.1-4.7,84.3-5,126.5-2.2
			c30.3,2.1,60.5,5.7,90.2,12.8c0,13.7-0.1,27.5,0.1,41.2c0,2.8-0.5,3.9-3.4,3.3c-0.8-0.2-1.7,0-2.6,0c-236.2,0-472.4,0-708.5,0.1
			c-4.9,0-6-1.1-6-6C0.3,490.7,0.3,248.9,0.1,7c0-4.9,1.1-6,6-6c236.2,0.1,472.4,0.1,708.5,0c4.9,0,6.1,1.1,6,6
			C720.3,23.8,720.6,40.6,720.6,57.4z"/>
	</g>
</g>
</svg>
