<?xml version="1.0" encoding="utf-8"?>
<!-- Generator: Adobe Illustrator 22.0.1, SVG Export Plug-In . SVG Version: 6.00 Build 0)  -->
<svg version="1.1" id="Layer_1" xmlns="http://www.w3.org/2000/svg" xmlns:xlink="http://www.w3.org/1999/xlink" x="0px" y="0px"
	 viewBox="0 0 85.6 33" style="enable-background:new 0 0 85.6 33;" xml:space="preserve">
<style type="text/css">
	.st0{fill:#FFF35C;}
	.st1{fill:#019CC3;}
</style>
<polygon class="st0" points="74.1,18.2 63.7,28.6 53.3,18.2 42.8,28.6 32.4,18.2 22,28.6 11.5,18.2 0,29.7 2.2,31.9 11.5,22.6 
	22,33 32.4,22.6 42.8,33 53.3,22.6 63.7,33 74.1,22.6 83.4,31.9 85.6,29.7 "/>
<polygon class="st1" points="74.1,0 63.7,10.4 53.3,0 42.8,10.4 32.4,0 22,10.4 11.5,0 0,11.5 2.2,13.7 11.5,4.4 22,14.8 32.4,4.4 
	42.8,14.8 53.3,4.4 63.7,14.8 74.1,4.4 83.4,13.7 85.6,11.5 "/>
</svg>
