<?xml version="1.0" encoding="utf-8"?>
<!-- Generator: Adobe Illustrator 19.0.0, SVG Export Plug-In . SVG Version: 6.00 Build 0)  -->
<svg version="1.1" id="Layer_1" xmlns="http://www.w3.org/2000/svg" xmlns:xlink="http://www.w3.org/1999/xlink" x="0px" y="0px"
	 viewBox="-271 363 68 67" style="enable-background:new -271 363 68 67;" xml:space="preserve">
<style type="text/css">
	.st0{fill:#2C4A7B;}
</style>
<path class="st0" d="M-254.3,396.4c0,8.6,7,15.5,15.5,15.5c3.1,0,6-0.9,8.5-2.5l5.9,1.9l-1.9-5.7c1.9-2.6,3-5.7,3-9.1
	c0-8.6-7-15.5-15.5-15.5l0,0C-247.3,381.1-254.3,387.9-254.3,396.4z M-248.1,400.7c0.2-0.3,0.5-0.4,0.9-0.6c0.5-0.3,2.7-1.4,3.1-1.5
	c0.4-0.2,0.8-0.1,1.1,0.3c0.4,0.6,0.8,1.2,1.2,1.6c0.3,0.3,0.7,0.4,1.1,0.2s1.9-0.7,3.6-2.2c1.3-1.2,2.3-2.7,2.5-3.1
	c0.2-0.5,0-0.8-0.2-1c-0.3-0.2-0.5-0.5-0.7-0.7c-0.3-0.3-0.4-0.4-0.5-0.7s0-0.7,0.1-0.9c0.1-0.2,1-2.4,1.4-3.3
	c0.3-0.6,0.6-0.7,1-0.7c0.1,0,0.3,0,0.5,0c0.6,0,1.2,0.2,1.6,0.6c0.5,0.5,1.6,1.6,1.6,3.8c0,2.1-1.7,4.3-1.9,4.6s-3.2,4.9-7.7,6.8
	c-3.5,1.5-4.6,1.4-5.4,1.2c-1.1-0.3-2.6-1.1-3-2.2C-248.2,401.8-248.2,400.9-248.1,400.7z"/>
</svg>
