<?xml version="1.0" encoding="utf-8"?>
<!-- Generator: Adobe Illustrator 19.0.0, SVG Export Plug-In . SVG Version: 6.00 Build 0)  -->
<svg version="1.1" id="Layer_1" xmlns="http://www.w3.org/2000/svg" xmlns:xlink="http://www.w3.org/1999/xlink" x="0px" y="0px"
	 viewBox="-282 372 47 49" style="enable-background:new -282 372 47 49;" xml:space="preserve">
<style type="text/css">
	.st0{fill:#2C4A7B;}
</style>
<path class="st0" d="M-258.5,381c-8.6,0-15.5,7-15.5,15.5c0,3.1,0.9,6,2.5,8.5l-1.9,5.9l5.7-1.9c2.6,1.9,5.7,3,9.1,3
	c8.6,0,15.5-7,15.5-15.5l0,0C-243.1,388-249.9,381-258.5,381z M-262.6,387.2c0.3,0.2,0.4,0.5,0.6,0.9c0.3,0.5,1.4,2.7,1.5,3.1
	c0.2,0.4,0.1,0.8-0.3,1.1c-0.6,0.4-1.2,0.8-1.6,1.2c-0.3,0.3-0.4,0.7-0.2,1.1c0.2,0.4,0.7,1.9,2.2,3.6c1.2,1.3,2.7,2.3,3.1,2.5
	c0.5,0.2,0.8,0,1-0.2c0.2-0.3,0.5-0.5,0.7-0.7c0.3-0.3,0.4-0.4,0.7-0.5s0.7,0,0.9,0.1s2.4,1,3.3,1.4c0.6,0.3,0.7,0.6,0.7,1
	c0,0.1,0,0.3,0,0.5c0,0.6-0.2,1.2-0.6,1.6c-0.5,0.5-1.6,1.6-3.8,1.6c-2.1,0-4.3-1.7-4.6-1.9c-0.3-0.2-4.9-3.2-6.8-7.7
	c-1.5-3.5-1.4-4.6-1.2-5.4c0.3-1.1,1.1-2.6,2.2-3C-263.8,387.1-262.8,387.1-262.6,387.2z"/>
</svg>
