<?xml version="1.0" encoding="utf-8"?>
<!-- Generator: Adobe Illustrator 22.0.1, SVG Export Plug-In . SVG Version: 6.00 Build 0)  -->
<svg version="1.1" id="Layer_1" xmlns="http://www.w3.org/2000/svg" xmlns:xlink="http://www.w3.org/1999/xlink" x="0px" y="0px"
	 viewBox="0 0 1440 438" style="enable-background:new 0 0 1440 438;" xml:space="preserve">
<style type="text/css">
	.st0{opacity:0.95;}
	.st1{fill:#FF6235;}
</style>
<g>
	<defs>
		<path id="SVGID_1_" d="M1441,159c0,93.3,0,186.7,0,280c-480,0-960,0-1440,0C1,317,1,195,1,73c11.1,2.3,22,4.9,33.2,6.7
			c25.2,4,50.5,8.1,75.8,11.3c18.8,2.4,37.7,4,56.5,5.3c26.5,1.9,53,4,79.6,4.6c31.3,0.6,62.6-0.1,93.9-0.6
			c13.8-0.2,27.6-0.9,41.3-2c25.6-2.1,51.4-3.8,76.9-7.2c30.9-4,61.8-8.8,92.5-14.5c45.7-8.6,90.6-20.8,134.9-35.2
			c56.5-18.3,114.7-27,173.9-28.9c27.1-0.9,54.2,0.3,81.3,1.7c22.2,1.1,44.4,3.4,66.4,6.2c42.9,5.5,85.2,13.9,127.1,24.4
			c47.6,11.9,94.4,26.3,140.5,43c55.2,20,109.1,43,161.6,69.4C1437.8,158.1,1439.5,158.5,1441,159z"/>
	</defs>
	<clipPath id="SVGID_2_">
		<use xlink:href="#SVGID_1_"  style="overflow:visible;"/>
	</clipPath>
	<g transform="matrix(1 0 0 1 0 -1.525879e-05)" style="clip-path:url(#SVGID_2_);">
		
			<image style="overflow:visible;" width="1208" height="806" xlink:href="featured-bg.jpg"  transform="matrix(1.4042 0 0 1.4042 -72.2184 -208.8742)">
		</image>
	</g>
</g>
<g class="st0">
	<path class="st1" d="M1441,160c0,93.3,0,186.7,0,280c-480.3,0-960.7,0-1441,0C0,318,0,196,0,74c11.1,2.3,22,4.9,33.2,6.7
		c25.2,4,50.5,8.1,75.9,11.3c18.8,2.4,37.7,4,56.5,5.3c26.5,1.9,53,4,79.7,4.6c31.3,0.6,62.6-0.1,94-0.6c13.8-0.2,27.6-0.9,41.3-2
		c25.6-2.1,51.4-3.8,77-7.2c30.9-4,61.8-8.8,92.6-14.5c45.7-8.6,90.7-20.8,135-35.2c56.5-18.3,114.8-27,174-28.9
		c27.1-0.9,54.2,0.3,81.4,1.7c22.2,1.1,44.4,3.4,66.4,6.2c42.9,5.5,85.3,13.9,127.2,24.4c47.6,11.9,94.5,26.3,140.6,43
		c55.2,20,109.2,43,161.7,69.4C1437.8,159.1,1439.5,159.5,1441,160z"/>
</g>
</svg>
