<?xml version="1.0" encoding="utf-8"?>
<!-- Generator: Adobe Illustrator 22.0.1, SVG Export Plug-In . SVG Version: 6.00 Build 0)  -->
<svg version="1.1" id="Layer_1" xmlns="http://www.w3.org/2000/svg" xmlns:xlink="http://www.w3.org/1999/xlink" x="0px" y="0px"
	 viewBox="0 0 401 75" style="enable-background:new 0 0 401 75;" xml:space="preserve">
<style type="text/css">
	.st0{fill:#019BC2;}
	.st1{fill:#ACDEEB;}
	.st2{fill:#E4F4F8;}
	.st3{fill:#79CADF;}
	.st4{fill:#2FADCD;}
	.st5{fill:#53BBD6;}
	.st6{fill:#FFFFFF;}
</style>
<g>
	<path class="st0" d="M400.2,0c1.2-0.2,0.7,0.6,0.7,1.1c0,51.7,0,19.6,0.1,71.3c0,1.5-0.3,2.1-1.9,1.8c-0.5-0.1-1,0-1.4,0
		c-131.8,0-262.9,0-394.7,0C2.2,68.8,2.8,63.4,2.6,58c-0.1-3.9,0-7.8,0-11.7c0-10.5,0,8.8,0-1.7c0-7.9,0,8.2,0,0.3
		c0-5.5,0-11,0-16.5c-0.2-7.7,0.5,14.5-0.4,6.8c0-4.1,0-8.1,0-12.2c1-2,2.8-2.5,4.8-2.8c11.3-2,22.7-3.4,34.1-4.7
		c13.3-1.5,26.7-1.7,40.1-1.9c9.7-0.1,19.5,0.2,29.3,1c13.4,1,26.6,2.6,39.9,4.8c16.3,2.6,32,7.3,47.8,11.7
		c10.5,2.9,21.2,4.5,32.1,5.4c6.4,0.5,12.8,0.5,19.2,0.6c20.8,0.2,41.2-2.8,61.3-7.2c27.6-6.1,53.5-14.9,79.1-26.6
		C393.2,1.7,396.8,1.2,400.2,0z"/>
	<path class="st1" d="M1.3,44.5c0,10.7,0-8.5,0,2.2c-0.2,0.5-0.4,0.5-0.6,0c0-10.7,0,8.5,0-2.2C1,43.9,1.2,43.9,1.3,44.5z"/>
	<path class="st2" d="M0.7,46.6c0.2,0.1,0.4,0.1,0.6,0c0,9.5,0.1,18.9,0.1,28.4c-1.6-0.1-0.7-1.3-0.7-1.8
		C0.7,64.3,0.7,55.5,0.7,46.6z"/>
	<path class="st3" d="M1.3,44.5l-0.3,0l-0.3-0.1c0-8,0,8.7,0,0.7c0.3-0.5,0.5-0.5,0.6,0.1C1.3,53.2,1.3,36.5,1.3,44.5z"/>
	<path class="st4" d="M0.7,34.9c1.4,3.5,0.6,7.1,0.7,10.7c0.1,4.2,0-21.4-0.1-17.2c-0.3,0.5-0.5,0.5-0.6-0.1
		C0.7,20.6,0.7,42.7,0.7,34.9z"/>
	<path class="st5" d="M0.7,28.4c0.2,0,0.4,0,0.6,0.1c0,5.6,0,11.2,0,16.7c-0.2,0-0.4,0-0.6-0.1C0.7,39.6,0.7,34,0.7,28.4z"/>
</g>
<path class="st6" d="M0,24.8"/>
</svg>
